<?xml version="1.0" encoding="UTF-8" standalone="no"?>
<!DOCTYPE svg PUBLIC "-//W3C//DTD SVG 1.1//EN" "http://www.w3.org/Graphics/SVG/1.1/DTD/svg11.dtd">
<!-- Created with Vectornator (http://vectornator.io/) -->
<svg height="100%" stroke-miterlimit="10" style="fill-rule:nonzero;clip-rule:evenodd;stroke-linecap:round;stroke-linejoin:round;" version="1.1" viewBox="0 0 280 280" width="100%" xml:space="preserve" xmlns="http://www.w3.org/2000/svg" xmlns:vectornator="http://vectornator.io" xmlns:xlink="http://www.w3.org/1999/xlink">
<defs>
<path d="M60.4663 44.4743C70.7127 9.06492 5.26737 57.3409 46.1172 110.398C86.967 163.455 74.2314 160.088 74.3749 190.284C74.5185 220.48 82.6562 221.144 116.496 236.831C150.335 252.519 178.726 258.809 190.309 236.024C201.892 213.239 235.529 238.437 230.42 197.257C225.31 156.077 245.893 148.625 229.379 116.933C212.865 85.2402 249.992 63.3629 222.962 54.7954C195.932 46.228 195.946 29.5335 163.559 29.9957C131.171 30.458 95.9393 20.396 84.8257 29.7577C73.7121 39.1195 59.6531 47.2846 60.4663 44.4743Z" id="Fill"/>
<filter color-interpolation-filters="sRGB" filterUnits="userSpaceOnUse" height="297.671" id="Filter" width="275.865" x="-3.69382" y="-10.4939">
<feDropShadow dx="-0" dy="-0" flood-color="#141414" flood-opacity="1" in="SourceGraphic" result="Shadow" stdDeviation="14.5"/>
</filter>
</defs>
<clipPath id="ArtboardFrame">
<rect height="280" width="280" x="0" y="0"/>
</clipPath>
<g clip-path="url(#ArtboardFrame)" id="Untitled" vectornator:layerName="Untitled">
<use fill="#385786" fill-rule="nonzero" filter="url(#Filter)" stroke="none" vectornator:layerName="Curve 1" vectornator:shadowAngle="4.2586" vectornator:shadowColor="#141414" vectornator:shadowOffset="0" vectornator:shadowOpacity="1" vectornator:shadowRadius="29" xlink:href="#Fill"/>
<clipPath clip-rule="nonzero" id="ClipPath">
<use xlink:href="#Fill"/>
</clipPath>
<g clip-path="url(#ClipPath)">
<g opacity="1" vectornator:layerName="rect">
<clipPath clip-rule="nonzero" id="ClipPath_2">
<path d="M30.0688 26.9231L262.223 26.9231L262.223 26.9231L262.223 259.077L262.223 259.077L30.0688 259.077L30.0688 259.077L30.0688 26.9231L30.0688 26.9231Z"/>
</clipPath>
<g clip-path="url(#ClipPath_2)">
<path d="M46.6512 159.582C46.6512 104.633 91.1964 60.0879 146.146 60.0879C201.095 60.0879 245.64 104.633 245.64 159.582C245.64 214.532 201.095 259.077 146.146 259.077C91.1964 259.077 46.6512 214.532 46.6512 159.582Z" fill="#000000" fill-opacity="0" fill-rule="nonzero" opacity="1" stroke="none" vectornator:layerName="circle"/>
<g opacity="1" vectornator:layerName="path">
<clipPath clip-rule="nonzero" id="ClipPath_3">
<path d="M255.59 26.9231L36.7018 26.9231L36.7018 159.582L46.6512 159.582C46.6512 214.528 91.1999 259.077 146.146 259.077C201.092 259.077 245.64 214.528 245.64 159.582L255.59 159.582L255.59 26.9231Z"/>
</clipPath>
<g clip-path="url(#ClipPath_3)">
<path d="M146.146 56.7715C120.503 56.7715 99.7149 77.5592 99.7149 103.202L99.7149 108.318C94.9285 109.127 91.4246 113.272 91.4237 118.126L91.4237 129.734C91.4233 134.685 95.0629 138.883 99.9637 139.584C101.667 155.68 111.624 169.73 126.247 176.671L126.247 191.926L122.93 191.926C89.9607 191.926 63.2336 218.654 63.2336 251.623L63.2336 259.085L229.058 259.085L229.058 251.623C229.058 218.654 202.331 191.926 169.361 191.926L166.045 191.926L166.045 176.679C180.667 169.739 190.624 155.689 192.328 139.592C197.232 138.891 200.872 134.688 200.868 129.734L200.868 118.126C200.867 113.272 197.363 109.127 192.576 108.318L192.576 103.202C192.576 77.5592 171.789 56.7715 146.146 56.7715Z" fill="#ae5d29" fill-rule="nonzero" opacity="1" stroke="none" vectornator:layerName="path"/>
<path d="M126.247 176.671L126.247 183.304C132.465 186.255 139.263 187.782 146.146 187.773C153.268 187.773 160.017 186.172 166.045 183.304L166.045 176.671C159.827 179.622 153.029 181.149 146.146 181.14C139.263 181.149 132.465 179.622 126.247 176.671Z" fill="#000000" fill-opacity="0.1" fill-rule="nonzero" opacity="1" stroke="none" vectornator:layerName="path"/>
<g opacity="1" vectornator:layerName="g">
<path d="M146.146 215.175C158.508 215.175 168.532 205.889 168.532 194.447C168.532 193.61 168.482 192.78 168.366 191.96L169.361 191.96C202.331 191.96 229.058 218.687 229.058 251.656L229.058 259.077L63.2336 259.077L63.2336 251.656C63.2336 218.687 89.9607 191.96 122.93 191.96L123.925 191.96C123.809 192.78 123.759 193.61 123.759 194.447C123.759 205.889 133.783 215.175 146.146 215.175Z" fill="#e6e6e6" fill-rule="nonzero" opacity="1" stroke="none" vectornator:layerName="path"/>
<path d="M120.261 192.018L120.443 191.089C117.989 191.13 115.468 191.918 115.468 191.918L115.12 192.465C85.4228 196.388 63.2294 221.709 63.2336 251.665L63.2336 259.077L124.589 259.077C124.589 259.077 115.717 216.327 120.244 192.084C120.244 192.084 120.261 192.018 120.261 192.018ZM167.703 259.077C167.703 259.077 176.823 215.133 171.848 191.089C174.303 191.13 176.823 191.918 176.823 191.918L177.171 192.465C206.869 196.388 229.062 221.709 229.058 251.665L229.058 259.077L167.703 259.077Z" fill="#262e33" fill-rule="nonzero" opacity="1" stroke="none" vectornator:layerName="path"/>
<path d="M120.443 191.089C115.468 215.133 124.589 259.077 124.589 259.077L111.323 259.077L99.7149 229.229L104.69 221.766L99.7149 216.792L115.468 191.918C115.468 191.918 117.989 191.13 120.443 191.089ZM171.848 191.089C176.823 215.133 167.703 259.077 167.703 259.077L180.969 259.077L192.576 229.229L187.602 221.766L192.576 216.792L176.823 191.918C176.823 191.918 174.303 191.13 171.848 191.089Z" fill="#000000" fill-opacity="0.15" fill-rule="evenodd" opacity="1" stroke="none" vectornator:layerName="path"/>
<path d="M126.247 185.733C120.634 189.547 117.126 194.953 117.126 200.947C117.126 207.083 120.799 212.596 126.645 216.427L131.57 212.547L135.367 212.82L134.538 210.209L134.604 210.159C129.547 207.547 126.247 203.277 126.247 198.452L126.247 185.733ZM166.045 198.452C166.045 203.277 162.745 207.547 157.687 210.159L157.753 210.209L156.924 212.82L160.722 212.547L165.647 216.427C171.492 212.596 175.165 207.083 175.165 200.947C175.165 194.953 171.658 189.547 166.045 185.733L166.045 198.452Z" fill="#f2f2f2" fill-rule="nonzero" opacity="1" stroke="none" vectornator:layerName="path"/>
<path d="M188.779 238.987L189.5 237.13L194.699 233.233C195.896 232.34 197.542 232.357 198.72 233.275L204.192 237.52L188.779 238.987Z" fill="#e6e6e6" fill-rule="nonzero" opacity="1" stroke="none" vectornator:layerName="path"/>
</g>
<path d="M134.538 150.462C134.538 156.873 139.735 162.07 146.146 162.07C152.556 162.07 157.753 156.873 157.753 150.462" fill="#000000" fill-opacity="0.7" fill-rule="evenodd" opacity="1" stroke="none" vectornator:layerName="path"/>
<path d="M136.196 134.709C136.196 138.374 140.649 141.342 146.146 141.342C151.643 141.342 156.095 138.374 156.095 134.709" fill="#000000" fill-opacity="0.16" fill-rule="evenodd" opacity="1" stroke="none" vectornator:layerName="path"/>
<path d="M113.114 120.158C114.647 117.007 118.088 114.81 122.101 114.81C126.089 114.81 129.53 116.99 131.072 120.116C131.528 121.053 130.873 121.816 130.218 121.252C127.933 119.37 125.053 118.362 122.093 118.408C119 118.408 116.19 119.436 114.175 121.086C113.429 121.692 112.666 121.078 113.114 120.158ZM161.203 120.158C162.736 117.007 166.177 114.81 170.19 114.81C174.178 114.81 177.619 116.99 179.161 120.116C179.617 121.053 178.962 121.816 178.307 121.252C176.022 119.37 173.142 118.362 170.182 118.408C167.081 118.408 164.27 119.436 162.255 121.086C161.509 121.692 160.746 121.078 161.194 120.158L161.203 120.158Z" fill="#000000" fill-opacity="0.6" fill-rule="evenodd" opacity="1" stroke="none" vectornator:layerName="path"/>
<path d="M118.594 96.221L119.34 95.8894C123.701 94.1565 130.293 94.8861 134.314 96.818C134.787 97.0419 134.463 97.7715 133.982 97.73C121.612 96.7848 113.288 104.487 110.46 109.711C110.377 109.86 110.12 109.877 110.054 109.736C108.147 105.325 113.744 98.1446 118.594 96.221ZM171.848 104.918C176.616 105.557 184.07 109.727 183.448 114.536C183.423 114.702 183.191 114.752 183.083 114.619C181.018 111.966 165.083 108.094 159.279 108.898C158.748 108.981 158.392 108.426 158.757 108.086C161.866 105.151 167.562 104.338 171.84 104.918L171.848 104.918Z" fill="#000000" fill-opacity="0.6" fill-rule="evenodd" opacity="1" stroke="none" vectornator:layerName="path"/>
<g opacity="1" vectornator:layerName="g">
<path d="M191.499 73.4534C192.245 76.148 193.298 83.3614 191.449 85.7575C190.827 86.5535 186.607 84.3149 184.841 83.3365L181.914 81.7114C169.543 74.8131 165.547 72.5911 143.857 72.9062C120.551 73.2378 104.582 84.1656 103.678 85.2849C103.056 86.056 102.26 88.1371 101.605 93.9161C101.398 95.7401 101.34 98.0368 101.274 100.309C101.158 105.234 101.025 110.067 99.4082 110.059C97.3851 110.051 96.9457 90.3426 97.8163 82.524C97.8494 82.2255 97.8992 81.8772 97.9655 81.5041C98.1562 80.3434 98.3801 78.909 98.0982 78.0964C97.9655 77.7316 97.6504 77.5161 97.3188 77.2756C96.8047 76.9191 96.2741 76.546 96.4233 75.5925C96.5974 74.5064 97.3354 74.4069 98.0567 74.2991C98.5293 74.2327 98.9936 74.1664 99.3004 73.8348C100.237 72.8149 99.6818 72.2843 99.0433 71.6791C98.662 71.3225 98.2557 70.9328 98.1147 70.4105C97.5924 68.4538 98.9687 67.8402 100.345 67.235L100.66 67.094C101.232 66.8453 101.572 66.7458 101.837 66.6795C102.335 66.5551 102.542 66.5053 103.405 65.5601C101.63 64.2667 101 62.5007 103.413 61.5555C103.877 61.3731 104.673 61.3897 105.486 61.3897C106.481 61.4063 107.476 61.4145 107.923 61.0829C108.048 60.9917 108.122 60.6435 108.197 60.3367C108.247 60.1128 108.288 59.9221 108.346 59.8392C109.465 58.239 109.366 57.0202 109.242 55.362L109.183 54.5992C109.076 52.9078 109.092 51.3656 111.115 51.1915C111.944 51.1252 112.691 51.5231 113.412 51.9045C113.86 52.145 114.307 52.3854 114.772 52.5098C115.493 52.7005 115.684 52.8663 115.866 52.8663C116.024 52.8663 116.173 52.7419 116.662 52.4103C117.641 51.7304 117.74 50.7106 117.848 49.6742C117.939 48.7787 118.03 47.8667 118.71 47.1868C120.02 45.8602 121.032 46.6562 122.027 47.4356C122.557 47.8501 123.088 48.2647 123.652 48.3476C125.766 48.6461 126.189 47.4687 126.653 46.2002C126.952 45.3711 127.267 44.4922 128.096 43.9781C129.613 43.0246 130.285 43.9367 130.94 44.8155C131.354 45.3794 131.752 45.9183 132.349 45.968C133.187 46.0344 134.439 45.056 135.541 44.1937C136.076 43.733 136.66 43.3327 137.282 42.9998C139.164 42.2287 140.524 43.0578 141.909 43.8952C143.07 44.6 144.255 45.3213 145.764 45.0809L146.452 44.9731C148.31 44.6663 149.031 44.5502 150.971 45.769C151.854 46.4436 153.006 46.6561 154.072 46.3411C154.57 46.2416 155.15 46.1339 155.946 46.1256C156.858 46.1256 157.588 46.5401 158.292 46.9464C158.873 47.278 159.42 47.6014 160.058 47.6677C160.407 47.7009 160.755 47.5351 161.103 47.3692C161.451 47.2034 161.799 47.0376 162.181 47.0542C163.698 47.1454 164.411 48.2979 165.124 49.442C165.68 50.3375 166.235 51.2247 167.164 51.6475C168.507 52.2445 170.016 51.8465 171.45 51.4734C172.105 51.3076 172.736 51.1417 173.341 51.0588C176.624 50.6774 176.052 52.6922 175.455 54.8396C175.155 55.7106 174.987 56.6218 174.958 57.5425C175.911 57.7664 176.865 57.4182 177.826 57.07C178.738 56.7383 179.634 56.4067 180.538 56.5725C183.357 57.0534 182.403 59.9055 181.732 61.9203L181.665 62.0944C182.196 62.0944 182.942 61.9286 183.788 61.7462C186.159 61.2487 189.268 60.5771 190.238 62.6831C190.628 63.5537 190.238 64.5984 189.874 65.6182C189.59 66.2497 189.419 66.9259 189.368 67.6164C189.384 68.8849 189.948 70.0208 190.529 71.1567C190.902 71.9112 191.275 72.6657 191.499 73.4617L191.499 73.4534Z" fill="#2c1b18" fill-rule="nonzero" opacity="1" stroke="none" vectornator:layerName="path"/>
<path d="M190.388 87.9464L190.777 88.22C192.236 89.0408 193.389 97.2574 193.447 100.4C193.48 102.34 193.513 109.727 191.457 109.089C190.835 108.898 189.882 104.985 189.749 102.688C189.616 100.4 188.306 92.6061 186.317 89.016C186.209 88.8253 186.051 88.5931 185.877 88.3527C185.338 87.5567 184.683 86.5949 185.114 86.0643C185.711 85.3347 186.3 85.5917 186.988 85.8985L187.353 86.0477C188.074 86.3379 189.65 87.4406 190.388 87.9547L190.388 87.9464Z" fill="#2c1b18" fill-rule="nonzero" opacity="1" stroke="none" vectornator:layerName="path"/>
</g>
<g opacity="1" vectornator:layerName="g">
<path d="M121.272 141.342C114.966 141.343 109.032 138.354 105.279 133.286C101.525 128.218 100.396 121.671 102.235 115.639L96.813 115.639C95.6682 115.639 94.7402 114.711 94.7402 113.566C94.7402 112.421 95.6682 111.493 96.813 111.493L103.446 111.493C103.637 111.493 103.819 111.518 103.993 111.568C107.623 105.207 114.454 101.354 121.775 101.538C129.097 101.721 135.725 105.912 139.032 112.447C140.759 109.801 143.699 108.197 146.859 108.177C150.184 108.177 153.119 109.951 154.818 112.654C158.067 106.046 164.7 101.772 172.061 101.545C179.421 101.317 186.305 105.173 189.956 111.568C190.122 111.518 190.313 111.485 190.504 111.485L197.137 111.485C198.281 111.485 199.209 112.413 199.209 113.558C199.209 114.703 198.281 115.631 197.137 115.631L191.714 115.631C194.109 123.508 191.406 132.046 184.915 137.11C178.423 142.174 169.483 142.717 162.426 138.476C155.369 134.235 151.653 126.086 153.077 117.977C153.011 114.354 150.217 111.485 146.859 111.485C143.766 111.485 141.146 113.923 140.707 117.148C142.009 123.038 140.568 129.202 136.79 133.905C133.012 138.608 127.305 141.343 121.272 141.342ZM121.272 138.025C130.43 138.025 137.854 130.601 137.854 121.443C137.854 112.285 130.43 104.86 121.272 104.86C112.114 104.86 104.69 112.285 104.69 121.443C104.69 130.601 112.114 138.025 121.272 138.025ZM189.26 121.443C189.26 130.601 181.836 138.025 172.678 138.025C163.519 138.025 156.095 130.601 156.095 121.443C156.095 112.285 163.519 104.86 172.678 104.86C181.836 104.86 189.26 112.285 189.26 121.443Z" fill="#000000" fill-opacity="0.1" fill-rule="evenodd" opacity="1" stroke="none" vectornator:layerName="path"/>
<path d="M121.272 139.684C114.966 139.684 109.032 136.696 105.279 131.628C101.525 126.56 100.396 120.013 102.235 113.981L96.813 113.981C95.6682 113.981 94.7402 113.053 94.7402 111.908C94.7402 110.763 95.6682 109.835 96.813 109.835L103.446 109.835C103.637 109.835 103.819 109.86 103.993 109.91C107.623 103.549 114.454 99.6958 121.775 99.8795C129.097 100.063 135.725 104.254 139.032 110.789C140.759 108.142 143.699 106.539 146.859 106.519C150.184 106.519 153.119 108.293 154.818 110.996C158.067 104.388 164.7 100.114 172.061 99.8864C179.421 99.6588 186.305 103.515 189.956 109.91C190.122 109.86 190.313 109.827 190.504 109.827L197.137 109.827C198.281 109.827 199.209 110.755 199.209 111.9C199.209 113.044 198.281 113.972 197.137 113.972L191.714 113.972C194.111 121.849 191.409 130.388 184.919 135.452C178.428 140.517 169.489 141.062 162.431 136.823C155.373 132.584 151.655 124.436 153.077 116.327C153.011 112.704 150.217 109.835 146.859 109.835C143.766 109.835 141.146 112.273 140.707 115.498C142.006 121.387 140.564 127.548 136.786 132.249C133.009 136.95 127.303 139.684 121.272 139.684ZM121.272 136.367C130.43 136.367 137.854 128.943 137.854 119.785C137.854 110.626 130.43 103.202 121.272 103.202C112.114 103.202 104.69 110.626 104.69 119.785C104.69 128.943 112.114 136.367 121.272 136.367ZM189.26 119.785C189.26 128.943 181.836 136.367 172.678 136.367C163.519 136.367 156.095 128.943 156.095 119.785C156.095 110.626 163.519 103.202 172.678 103.202C181.836 103.202 189.26 110.626 189.26 119.785Z" fill="#3c4f5c" fill-rule="evenodd" opacity="1" stroke="none" vectornator:layerName="path"/>
</g>
</g>
</g>
</g>
</g>
</g>
</g>
</svg>
